<svg width="512" height="512" viewBox="0 0 512 512" xmlns="http://www.w3.org/2000/svg"><mask id="satori_om-id"><rect x="0" y="0" width="512" height="512" fill="#fff"/></mask><rect x="0" y="0" width="512" height="512" fill="#5A3E14"/><mask id="satori_om-id-0"><rect x="72" y="130" width="150" height="252" fill="#fff"/></mask><g  ><path fill="#F0EBE0" d="M137.1 255.3L137.1 252.4L162.0 252.4Q173.7 252.4 179.4 247.2Q185.1 242.0 187.5 227.8L187.5 227.8Q187.8 226.8 188.1 226.6Q188.4 226.4 188.8 226.4L188.8 226.4Q189.8 226.3 190.2 227.8L190.2 227.8L204.8 276.3Q205.1 277.1 204.9 277.6Q204.8 278.1 204.4 278.3L204.4 278.3Q204.0 278.5 203.6 278.5Q203.2 278.5 202.5 277.8L202.5 277.8Q195.5 268.8 190.0 263.8Q184.5 258.9 178.8 257.1Q173.1 255.3 165.6 255.3L165.6 255.3L137.1 255.3ZM80.1 171.6L80.1 171.6Q80.1 171.2 80.4 170.9Q80.7 170.6 81.5 170.6L81.5 170.6L196.6 170.6Q199.8 170.6 202.3 169.8Q204.9 169.1 206.7 168.4Q208.5 167.7 208.8 167.7L208.8 167.7Q209.2 167.7 209.5 168.2Q209.7 168.7 210.1 170.6L210.1 170.6L222.2 221.4Q222.4 222.4 222.3 222.8Q222.1 223.3 221.7 223.4L221.7 223.4Q221.3 223.5 221.0 223.4Q220.7 223.3 220.1 222.5L220.1 222.5Q209.1 207.1 200.6 197.6Q192.1 188.0 185.1 182.7Q178.1 177.4 171.8 175.5Q165.5 173.5 158.7 173.5L158.7 173.5L144.6 173.5L144.6 338.1Q144.6 341.1 146.2 342.6Q147.9 344.1 150.9 344.1L150.9 344.1L160.6 344.1Q168.4 344.1 177.1 339.3Q185.8 334.4 196.8 321.2Q207.8 308.1 222.7 283.0L222.7 283.0Q223.3 282.2 223.6 282.0Q224.0 281.7 224.3 282.0L224.3 282.0Q224.7 282.0 224.9 282.5Q225.1 283.0 224.8 284.1L224.8 284.1L210.3 347Q210.0 348.8 209.7 349.3Q209.5 349.9 209.2 349.9L209.2 349.9Q208.6 349.9 206.8 349.2Q205.1 348.5 202.4 347.8Q199.8 347 196.5 347L196.5 347L81.5 347Q80.7 347 80.4 346.7Q80.1 346.4 80.1 346.0L80.1 346.0Q80.1 345.2 82.0 344.9L82.0 344.9L89.8 343.5Q92.5 343.1 93.9 342.2Q95.3 341.3 95.3 339.8L95.3 339.8L95.3 177.8Q95.3 176.3 93.9 175.4Q92.5 174.5 89.8 174.1L89.8 174.1L82.0 172.7Q80.1 172.4 80.1 171.6Z "/></g><mask id="satori_om-id-1"><rect x="217" y="130" width="191" height="252" fill="#fff"/></mask><g  ><path fill="#F0EBE0" d="M307.2 298.9L307.2 298.9Q308.0 296.0 309.7 294.5Q311.4 292.9 313.8 293.4L313.8 293.4Q316.4 294.0 317.1 295.8Q317.8 297.7 317.0 301.0L317.0 301.0Q313.5 317.6 313.9 328.9Q314.3 340.2 318.2 347.3Q322.2 354.3 329.4 358.1Q336.6 361.9 346.4 363.3L346.4 363.3Q357.2 364.8 364.2 363.5Q371.1 362.2 375.0 360.7Q378.9 359.2 380.5 360.0L380.5 360.0Q382.3 360.5 382.6 363.1Q382.9 365.6 381.2 368.0L381.2 368.0L368.7 386.3Q366.6 389.2 363.2 391.7Q359.8 394.1 354.0 395.3Q348.3 396.4 339.0 395.5L339.0 395.5Q323.3 393.9 313.5 383.1Q303.6 372.3 301.5 351.5Q299.5 330.6 307.2 298.9ZM345.3 167.1L345.3 167.1Q364.8 167.2 379.4 174.2Q393.9 181.2 402.9 193.6Q411.9 206.0 414.7 222.8Q417.5 239.5 413.2 259.3L413.2 259.3Q408.1 282.4 397.0 299.6Q385.8 316.8 370.3 328.2Q354.8 339.6 336.5 345.1Q318.2 350.7 298.6 350.3L298.6 350.3Q279.0 350.0 264.4 343.2Q249.8 336.4 241.0 323.9Q232.2 311.3 230.0 293.8Q227.7 276.2 232.8 254.5L232.8 254.5Q237.2 235.6 247.1 219.6Q257.1 203.6 271.7 191.7Q286.4 179.8 305.0 173.3Q323.6 166.8 345.3 167.1ZM303.8 332.9L303.8 332.9Q309.0 333.0 314.8 329.8Q320.6 326.6 326.6 318.3Q332.5 310.0 338.5 295.1Q344.4 280.2 349.8 257.3L349.8 257.3Q353.5 242.2 355.1 230.8Q356.7 219.4 356.7 210.9L356.7 210.9Q356.7 201.6 354.8 195.9Q353.0 190.3 349.6 187.5Q346.3 184.7 341.6 184.5L341.6 184.5Q335.8 184.0 329.8 187.2Q323.8 190.5 318.1 198.7Q312.3 206.9 306.6 221Q301.0 235.1 296.0 256.4L296.0 256.4Q291.7 273.9 289.8 286.7Q287.9 299.5 287.9 308.3L287.9 308.3Q288.1 317.4 290.0 322.7Q291.8 328.0 295.4 330.4Q299.0 332.8 303.8 332.9Z "/></g><mask id="satori_om-id-2"><rect x="386" y="130" width="54" height="252" fill="#fff"/></mask><g  ><path fill="#F0EBE0" d="M416.4 349.4L416.4 349.4Q409.7 349.4 404.3 346.1Q398.9 342.7 395.7 337.1Q392.6 331.5 392.6 324.8L392.6 324.8Q392.6 318.3 395.7 312.8Q398.9 307.3 404.3 304.0Q409.7 300.8 416.4 300.8L416.4 300.8Q423.2 300.8 428.7 304.0Q434.1 307.3 437.3 312.8Q440.4 318.3 440.4 324.8L440.4 324.8Q440.4 331.5 437.3 337.1Q434.1 342.7 428.7 346.1Q423.2 349.4 416.4 349.4Z "/></g></svg>